<?xml version="1.0" encoding="UTF-8" standalone="no"?>
<svg
   xmlns:osb="http://www.openswatchbook.org/uri/2009/osb"
   xmlns:dc="http://purl.org/dc/elements/1.1/"
   xmlns:cc="http://creativecommons.org/ns#"
   xmlns:rdf="http://www.w3.org/1999/02/22-rdf-syntax-ns#"
   xmlns:svg="http://www.w3.org/2000/svg"
   xmlns="http://www.w3.org/2000/svg"
   id="SVGRoot"
   version="1.1"
   viewBox="0 0 20 20"
   height="20px"
   width="20px">
  <defs
     id="defs10">
    <linearGradient
       osb:paint="solid"
       id="linearGradient6953">
      <stop
         id="stop6951"
         offset="0"
         style="stop-color:#000000;stop-opacity:1;" />
    </linearGradient>
    <linearGradient
       osb:paint="solid"
       id="linearGradient6945">
      <stop
         id="stop6943"
         offset="0"
         style="stop-color:#000000;stop-opacity:1;" />
    </linearGradient>
  </defs>
  <metadata
     id="metadata13">
    <rdf:RDF>
      <cc:Work
         rdf:about="">
        <dc:format>image/svg+xml</dc:format>
        <dc:type
           rdf:resource="http://purl.org/dc/dcmitype/StillImage" />
        <dc:title></dc:title>
      </cc:Work>
    </rdf:RDF>
  </metadata>
  <g
     id="layer1">
    <path
       id="rect37"
       d="M 1 0 C 0.446 0 0 0.446 0 1 L 0 19 C 0 19.554 0.446 20 1 20 L 8 20 C 8.554 20 9 19.554 9 19 L 9 1 C 9 0.446 8.554 0 8 0 L 1 0 z M 1.3007812 1 L 7.6992188 1 C 7.8654188 1 8 1.1345812 8 1.3007812 L 8 18.699219 C 8 18.865419 7.8654188 19 7.6992188 19 L 1.3007812 19 C 1.1345812 19 1 18.865419 1 18.699219 L 1 1.3007812 C 1 1.1345812 1.1345812 1 1.3007812 1 z " />
    <path
       id="rect39"
       d="M 12 0 C 11.446 0 11 0.446 11 1 L 11 19 C 11 19.554 11.446 20 12 20 L 19 20 C 19.554 20 20 19.554 20 19 L 20 1 C 20 0.446 19.554 0 19 0 L 12 0 z M 12.300781 1 L 18.699219 1 C 18.865419 1 19 1.1345812 19 1.3007812 L 19 9 L 19 9.5 L 19 10.5 L 19 11 L 19 18.699219 C 19 18.865419 18.865419 19 18.699219 19 L 12.300781 19 C 12.134581 19 12 18.865419 12 18.699219 L 12 11 L 12 10.5 L 12 10 L 12 9.5 L 12 9 L 12 1.3007812 C 12 1.1345812 12.134581 1 12.300781 1 z " />
    <path
       id="path6941"
       d="m 15,7 v 2.5 h -2.5 v 1 H 15 V 13 h 1 v -2.5 h 2.5 v -1 H 16 V 7 Z"
       style="color:#000000;font-style:normal;font-variant:normal;font-weight:normal;font-stretch:normal;font-size:medium;line-height:normal;font-family:sans-serif;font-variant-ligatures:normal;font-variant-position:normal;font-variant-caps:normal;font-variant-numeric:normal;font-variant-alternates:normal;font-feature-settings:normal;text-indent:0;text-align:start;text-decoration:none;text-decoration-line:none;text-decoration-style:solid;text-decoration-color:#000000;letter-spacing:normal;word-spacing:normal;text-transform:none;writing-mode:lr-tb;direction:ltr;text-orientation:mixed;dominant-baseline:auto;baseline-shift:baseline;text-anchor:start;white-space:normal;shape-padding:0;clip-rule:nonzero;display:inline;overflow:visible;visibility:visible;opacity:1;isolation:auto;mix-blend-mode:normal;color-interpolation:sRGB;color-interpolation-filters:linearRGB;solid-color:#000000;solid-opacity:1;vector-effect:none;fill-opacity:1;fill-rule:nonzero;color-rendering:auto;image-rendering:auto;shape-rendering:auto;text-rendering:auto;enable-background:accumulate" />
  </g>
</svg>
