<?xml version="1.0" encoding="UTF-8" standalone="no"?>
<svg
   xmlns:osb="http://www.openswatchbook.org/uri/2009/osb"
   xmlns:dc="http://purl.org/dc/elements/1.1/"
   xmlns:cc="http://creativecommons.org/ns#"
   xmlns:rdf="http://www.w3.org/1999/02/22-rdf-syntax-ns#"
   xmlns:svg="http://www.w3.org/2000/svg"
   xmlns="http://www.w3.org/2000/svg"
   xmlns:sodipodi="http://sodipodi.sourceforge.net/DTD/sodipodi-0.dtd"
   xmlns:inkscape="http://www.inkscape.org/namespaces/inkscape"
   id="SVGRoot"
   version="1.1"
   viewBox="0 0 20 20"
   height="20px"
   width="20px"
   sodipodi:docname="addRow.svg"
   inkscape:version="0.92.4 5da689c313, 2019-01-14">
  <sodipodi:namedview
     pagecolor="#ffffff"
     bordercolor="#666666"
     borderopacity="1"
     objecttolerance="10"
     gridtolerance="10"
     guidetolerance="10"
     inkscape:pageopacity="0"
     inkscape:pageshadow="2"
     inkscape:window-width="1920"
     inkscape:window-height="1021"
     id="namedview167"
     showgrid="true"
     inkscape:zoom="33.37544"
     inkscape:cx="18.839971"
     inkscape:cy="8.1484839"
     inkscape:window-x="0"
     inkscape:window-y="0"
     inkscape:window-maximized="1"
     inkscape:current-layer="SVGRoot">
    <inkscape:grid
       type="xygrid"
       id="grid3872" />
  </sodipodi:namedview>
  <defs
     id="defs10">
    <linearGradient
       osb:paint="solid"
       id="linearGradient6953">
      <stop
         id="stop6951"
         offset="0"
         style="stop-color:#000000;stop-opacity:1;" />
    </linearGradient>
    <linearGradient
       osb:paint="solid"
       id="linearGradient6945">
      <stop
         id="stop6943"
         offset="0"
         style="stop-color:#000000;stop-opacity:1;" />
    </linearGradient>
  </defs>
  <metadata
     id="metadata13">
    <rdf:RDF>
      <cc:Work
         rdf:about="">
        <dc:format>image/svg+xml</dc:format>
        <dc:type
           rdf:resource="http://purl.org/dc/dcmitype/StillImage" />
        <dc:title></dc:title>
      </cc:Work>
    </rdf:RDF>
  </metadata>
  <g
     id="layer1"
     transform="rotate(90,10,10)">
    <path
       id="rect37"
       d="M 1,0 C 0.446,0 0,0.446 0,1 v 18 c 0,0.554 0.446,1 1,1 h 7 c 0.554,0 1,-0.446 1,-1 V 1 C 9,0.446 8.554,0 8,0 Z M 1.3007812,1 H 7.6992188 C 7.8654188,1 8,1.1345812 8,1.3007812 V 18.699219 C 8,18.865419 7.8654188,19 7.6992188,19 H 1.3007812 C 1.1345812,19 1,18.865419 1,18.699219 V 1.3007812 C 1,1.1345812 1.1345812,1 1.3007812,1 Z"
       inkscape:connector-curvature="0" />
    <path
       id="rect39"
       d="m 12,0 c -0.554,0 -1,0.446 -1,1 v 18 c 0,0.554 0.446,1 1,1 h 7 c 0.554,0 1,-0.446 1,-1 V 1 C 20,0.446 19.554,0 19,0 Z m 0.300781,1 h 6.398438 C 18.865419,1 19,1.1345812 19,1.3007812 V 9 v 0.5 1 0.5 7.699219 C 19,18.865419 18.865419,19 18.699219,19 H 12.300781 C 12.134581,19 12,18.865419 12,18.699219 V 11 10.5 10 9.5 9 1.3007812 C 12,1.1345812 12.134581,1 12.300781,1 Z"
       inkscape:connector-curvature="0" />
    <path
       id="path6941"
       d="m 15,7 v 2.5 h -2.5 v 1 H 15 V 13 h 1 v -2.5 h 2.5 v -1 H 16 V 7 Z"
       style="color:#000000;font-style:normal;font-variant:normal;font-weight:normal;font-stretch:normal;font-size:medium;line-height:normal;font-family:sans-serif;font-variant-ligatures:normal;font-variant-position:normal;font-variant-caps:normal;font-variant-numeric:normal;font-variant-alternates:normal;font-feature-settings:normal;text-indent:0;text-align:start;text-decoration:none;text-decoration-line:none;text-decoration-style:solid;text-decoration-color:#000000;letter-spacing:normal;word-spacing:normal;text-transform:none;writing-mode:lr-tb;direction:ltr;text-orientation:mixed;dominant-baseline:auto;baseline-shift:baseline;text-anchor:start;white-space:normal;shape-padding:0;clip-rule:nonzero;display:inline;overflow:visible;visibility:visible;opacity:1;isolation:auto;mix-blend-mode:normal;color-interpolation:sRGB;color-interpolation-filters:linearRGB;solid-color:#000000;solid-opacity:1;vector-effect:none;fill-opacity:1;fill-rule:nonzero;color-rendering:auto;image-rendering:auto;shape-rendering:auto;text-rendering:auto;enable-background:accumulate"
       inkscape:connector-curvature="0" />
  </g>
</svg>
