<?xml version="1.0" encoding="UTF-8" standalone="no"?>
<svg
        xmlns:dc="http://purl.org/dc/elements/1.1/"
        xmlns:cc="http://creativecommons.org/ns#"
        xmlns:rdf="http://www.w3.org/1999/02/22-rdf-syntax-ns#"
        xmlns:svg="http://www.w3.org/2000/svg"
        xmlns="http://www.w3.org/2000/svg"
        id="SVGRoot"
        version="1.1"
        viewBox="0 0 20 20"
        height="20px"
        width="20px">
    <defs
            id="defs815"/>
    <metadata
            id="metadata818">
        <rdf:RDF>
            <cc:Work
                    rdf:about="">
                <dc:format>image/svg+xml</dc:format>
                <dc:type
                        rdf:resource="http://purl.org/dc/dcmitype/StillImage"/>
                <dc:title></dc:title>
            </cc:Work>
        </rdf:RDF>
    </metadata>
    <g
            id="layer1">
        <rect
                ry="0.30000001"
                rx="0.30000001"
                y="1.5"
                x="7.5"
                height="2"
                width="12.5"
                id="rect1406"/>
        <rect
                ry="0.30000001"
                rx="0.30000001"
                y="9"
                x="7.5"
                height="2"
                width="12.5"
                id="rect1406-3"/>
        <rect
                ry="0.30000001"
                rx="0.30000001"
                y="16.5"
                x="7.5"
                height="2"
                width="12.5"
                id="rect1406-5"/>
        <path
                id="rect1454"
                d="M 0.30078125 0 C 0.13458124 0 0 0.13458124 0 0.30078125 L 0 4.6992188 C 0 4.8654188 0.13458124 5 0.30078125 5 L 4.6992188 5 C 4.8654188 5 5 4.8654188 5 4.6992188 L 5 0.30078125 C 5 0.13458124 4.8654188 0 4.6992188 0 L 0.30078125 0 z M 1.3007812 1 L 3.6992188 1 C 3.8654188 1 4 1.1345812 4 1.3007812 L 4 3.6992188 C 4 3.8654188 3.8654188 4 3.6992188 4 L 1.3007812 4 C 1.1345812 4 1 3.8654188 1 3.6992188 L 1 1.3007812 C 1 1.1345812 1.1345812 1 1.3007812 1 z "/>
        <path
                id="rect1454-6"
                d="M 0.3007812,7.5 C 0.1345812,7.5 0,7.6345812 0,7.8007813 V 12.199219 C 0,12.365419 0.1345812,12.5 0.3007812,12.5 H 4.6992188 C 4.8654188,12.5 5,12.365419 5,12.199219 V 7.8007813 C 5,7.6345812 4.8654188,7.5 4.6992188,7.5 Z m 1,1 H 3.6992188 C 3.8654188,8.5 4,8.6345812 4,8.8007812 V 11.199219 C 4,11.365419 3.8654188,11.5 3.6992188,11.5 H 1.3007812 C 1.1345812,11.5 1,11.365419 1,11.199219 V 8.8007812 C 1,8.6345812 1.1345812,8.5 1.3007812,8.5 Z"/>
        <path
                id="rect1454-2"
                d="M 0.3007812,15 C 0.1345812,15 0,15.134581 0,15.300781 v 4.398438 C 0,19.865419 0.1345812,20 0.3007812,20 H 4.6992188 C 4.8654188,20 5,19.865419 5,19.699219 V 15.300781 C 5,15.134581 4.8654188,15 4.6992188,15 Z m 1,1 H 3.6992188 C 3.8654188,16 4,16.134581 4,16.300781 v 2.398438 C 4,18.865419 3.8654188,19 3.6992188,19 H 1.3007812 C 1.1345812,19 1,18.865419 1,18.699219 V 16.300781 C 1,16.134581 1.1345812,16 1.3007812,16 Z"/>
    </g>
</svg>
