<?xml version="1.0" encoding="UTF-8" standalone="no"?>
<svg
   xmlns:osb="http://www.openswatchbook.org/uri/2009/osb"
   xmlns:dc="http://purl.org/dc/elements/1.1/"
   xmlns:cc="http://creativecommons.org/ns#"
   xmlns:rdf="http://www.w3.org/1999/02/22-rdf-syntax-ns#"
   xmlns:svg="http://www.w3.org/2000/svg"
   xmlns="http://www.w3.org/2000/svg"
   id="SVGRoot"
   version="1.1"
   viewBox="0 0 20 20"
   height="20px"
   width="20px">
  <defs
     id="defs6106">
    <linearGradient
       osb:paint="solid"
       id="linearGradient6983">
      <stop
         id="stop6981"
         offset="0"
         style="stop-color:#000000;stop-opacity:1;" />
    </linearGradient>
  </defs>
  <metadata
     id="metadata6109">
    <rdf:RDF>
      <cc:Work
         rdf:about="">
        <dc:format>image/svg+xml</dc:format>
        <dc:type
           rdf:resource="http://purl.org/dc/dcmitype/StillImage" />
        <dc:title></dc:title>
      </cc:Work>
    </rdf:RDF>
  </metadata>
  <g
     id="layer1">
    <path
       id="rect6192"
       d="M 0.90039062 0 C 0.40179064 0 0 0.38256473 0 0.85742188 L 0 14.142578 C 0 14.617435 0.40179064 15 0.90039062 15 L 7.5 15 L 7.5 14 L 1.1992188 14 C 1.0884187 14 1 13.911581 1 13.800781 L 1 1.1992188 C 1 1.0884187 1.0884187 1 1.1992188 1 L 12.300781 1 C 12.411581 1 12.5 1.0884187 12.5 1.1992188 L 12.5 6 L 13.5 6 L 13.5 0.85742188 C 13.5 0.38256473 13.098209 0 12.599609 0 L 0.90039062 0 z "
       style="opacity:1;fill-opacity:1;" />
    <path
       id="rect6192-5"
       d="M 7.4003906,5 C 6.9017906,5 6.5,5.3825647 6.5,5.8574219 V 19.142578 C 6.5,19.617435 6.9017906,20 7.4003906,20 H 19.099609 C 19.598209,20 20,19.617435 20,19.142578 V 5.8574219 C 20,5.3825647 19.598209,5 19.099609,5 Z M 7.6992188,6 H 18.800781 C 18.911581,6 19,6.0884187 19,6.1992188 V 18.800781 C 19,18.911581 18.911581,19 18.800781,19 H 7.6992188 C 7.5884187,19 7.5,18.911581 7.5,18.800781 V 6.1992188 C 7.5,6.0884187 7.5884187,6 7.6992188,6 Z"
       style="opacity:1;fill-opacity:1;" />
  </g>
</svg>
