<?xml version="1.0" encoding="UTF-8" standalone="no"?>
<svg
   xmlns:dc="http://purl.org/dc/elements/1.1/"
   xmlns:cc="http://creativecommons.org/ns#"
   xmlns:rdf="http://www.w3.org/1999/02/22-rdf-syntax-ns#"
   xmlns:svg="http://www.w3.org/2000/svg"
   xmlns="http://www.w3.org/2000/svg"
   xmlns:sodipodi="http://sodipodi.sourceforge.net/DTD/sodipodi-0.dtd"
   xmlns:inkscape="http://www.inkscape.org/namespaces/inkscape"
   id="SVGRoot"
   version="1.1"
   viewBox="0 0 20 20"
   height="20px"
   width="20px"
   sodipodi:docname="deleteRow.svg"
   inkscape:version="0.92.4 5da689c313, 2019-01-14">
  <sodipodi:namedview
     pagecolor="#ffffff"
     bordercolor="#666666"
     borderopacity="1"
     objecttolerance="10"
     gridtolerance="10"
     guidetolerance="10"
     inkscape:pageopacity="0"
     inkscape:pageshadow="2"
     inkscape:window-width="1920"
     inkscape:window-height="1021"
     id="namedview56"
     showgrid="true"
     inkscape:snap-bbox="true"
     inkscape:bbox-paths="true"
     inkscape:bbox-nodes="true"
     inkscape:snap-bbox-edge-midpoints="true"
     inkscape:snap-bbox-midpoints="true"
     inkscape:zoom="40.7"
     inkscape:cx="10"
     inkscape:cy="12.333697"
     inkscape:window-x="0"
     inkscape:window-y="0"
     inkscape:window-maximized="1"
     inkscape:current-layer="layer1">
    <inkscape:grid
       type="xygrid"
       id="grid73" />
  </sodipodi:namedview>
  <defs
     id="defs7006" />
  <metadata
     id="metadata7009">
    <rdf:RDF>
      <cc:Work
         rdf:about="">
        <dc:format>image/svg+xml</dc:format>
        <dc:type
           rdf:resource="http://purl.org/dc/dcmitype/StillImage" />
        <dc:title></dc:title>
      </cc:Work>
    </rdf:RDF>
  </metadata>
  <g
     id="layer1">
    <path
       id="rect37"
       d="M 20,1 C 20,0.446 19.554,0 19,0 H 1 C 0.446,0 0,0.446 0,1 v 7 c 0,0.554 0.446,1 1,1 h 18 c 0.554,0 1,-0.446 1,-1 z M 19,1.3007812 V 7.699219 C 19,7.865419 18.865419,8 18.699219,8 H 1.300781 C 1.134581,8 1,7.865419 1,7.699219 V 1.3007812 C 1,1.1345812 1.134581,1 1.300781,1 H 18.699219 C 18.865419,1 19,1.1345812 19,1.3007812 Z"
       inkscape:connector-curvature="0" />
    <path
       d="m 20,12 c 0,-0.554 -0.446,-1 -1,-1 h -0.5 v 1 h 0.199219 C 18.865419,12 19,12.134581 19,12.300781 V 13 h 1 z m 0,6 h -1 v 0.699219 C 19,18.865419 18.865419,19 18.699219,19 H 18.5 v 1 H 19 c 0.554,0 1,-0.446 1,-1 z m -4,-7 h -2.5 v 1 H 16 Z m 0,8 h -2.5 v 1 H 16 Z M 11,11 H 8.5 v 1 H 11 Z m 0,8 H 8.5 v 1 H 11 Z M 6,11 H 3.5 v 1 H 6 Z m 0,8 H 3.5 v 1 H 6 Z M 1,11 c -0.554,0 -1,0.446 -1,1 v 1 h 1 v -0.699219 z m 0,7 H 0 v 1 c 0,0.554 0.446,1 1,1 v -1.300781 z"
       id="rect37-3"
       inkscape:connector-curvature="0" />
  </g>
</svg>
