<?xml version="1.0" encoding="UTF-8" standalone="no"?>
<svg
   xmlns:dc="http://purl.org/dc/elements/1.1/"
   xmlns:cc="http://creativecommons.org/ns#"
   xmlns:rdf="http://www.w3.org/1999/02/22-rdf-syntax-ns#"
   xmlns:svg="http://www.w3.org/2000/svg"
   xmlns="http://www.w3.org/2000/svg"
   xmlns:sodipodi="http://sodipodi.sourceforge.net/DTD/sodipodi-0.dtd"
   xmlns:inkscape="http://www.inkscape.org/namespaces/inkscape"
   id="SVGRoot"
   version="1.1"
   viewBox="0 0 20 20"
   height="20px"
   width="20px"
   sodipodi:docname="deleteColumn.svg"
   inkscape:version="0.92.4 5da689c313, 2019-01-14">
  <sodipodi:namedview
     pagecolor="#ffffff"
     bordercolor="#666666"
     borderopacity="1"
     objecttolerance="10"
     gridtolerance="10"
     guidetolerance="10"
     inkscape:pageopacity="0"
     inkscape:pageshadow="2"
     inkscape:window-width="1920"
     inkscape:window-height="1021"
     id="namedview56"
     showgrid="true"
     inkscape:snap-bbox="true"
     inkscape:bbox-paths="true"
     inkscape:bbox-nodes="true"
     inkscape:snap-bbox-edge-midpoints="true"
     inkscape:snap-bbox-midpoints="true"
     inkscape:zoom="40.7"
     inkscape:cx="10"
     inkscape:cy="10"
     inkscape:window-x="0"
     inkscape:window-y="0"
     inkscape:window-maximized="1"
     inkscape:current-layer="layer1">
    <inkscape:grid
       type="xygrid"
       id="grid73" />
  </sodipodi:namedview>
  <defs
     id="defs7006" />
  <metadata
     id="metadata7009">
    <rdf:RDF>
      <cc:Work
         rdf:about="">
        <dc:format>image/svg+xml</dc:format>
        <dc:type
           rdf:resource="http://purl.org/dc/dcmitype/StillImage" />
        <dc:title />
      </cc:Work>
    </rdf:RDF>
  </metadata>
  <g
     id="layer1">
    <path
       id="rect37"
       d="M 1,0 C 0.446,0 0,0.446 0,1 v 18 c 0,0.554 0.446,1 1,1 h 7 c 0.554,0 1,-0.446 1,-1 V 1 C 9,0.446 8.554,0 8,0 Z M 1.3007812,1 H 7.6992188 C 7.8654188,1 8,1.1345812 8,1.3007812 V 18.699219 C 8,18.865419 7.8654188,19 7.6992188,19 H 1.3007812 C 1.1345812,19 1,18.865419 1,18.699219 V 1.3007812 C 1,1.1345812 1.1345812,1 1.3007812,1 Z" />
    <path
       d="M 12 0 C 11.446 0 11 0.44600001 11 1 L 11 1.5 L 12 1.5 L 12 1.3007812 C 12 1.1345813 12.134581 1 12.300781 1 L 13 1 L 13 0 L 12 0 z M 18 0 L 18 1 L 18.699219 1 C 18.865419 1 19 1.1345814 19 1.3007812 L 19 1.5 L 20 1.5 L 20 1 C 20 0.44600001 19.554 0 19 0 L 18 0 z M 11 4 L 11 6.5 L 12 6.5 L 12 4 L 11 4 z M 19 4 L 19 6.5 L 20 6.5 L 20 4 L 19 4 z M 11 9 L 11 11.5 L 12 11.5 L 12 9 L 11 9 z M 19 9 L 19 11.5 L 20 11.5 L 20 9 L 19 9 z M 11 14 L 11 16.5 L 12 16.5 L 12 14 L 11 14 z M 19 14 L 19 16.5 L 20 16.5 L 20 14 L 19 14 z M 11 19 C 11 19.554 11.446 20 12 20 L 13 20 L 13 19 L 12.300781 19 L 11 19 z M 18 19 L 18 20 L 19 20 C 19.554 20 20 19.554 20 19 L 18.699219 19 L 18 19 z "
       id="rect37-3" />
  </g>
</svg>
