<?xml version="1.0" encoding="UTF-8" standalone="no"?>
<svg
   xmlns:dc="http://purl.org/dc/elements/1.1/"
   xmlns:cc="http://creativecommons.org/ns#"
   xmlns:rdf="http://www.w3.org/1999/02/22-rdf-syntax-ns#"
   xmlns:svg="http://www.w3.org/2000/svg"
   xmlns="http://www.w3.org/2000/svg"
   id="SVGRoot"
   version="1.1"
   viewBox="0 0 20 20"
   height="20px"
   width="20px">
  <defs
     id="defs4682" />
  <metadata
     id="metadata4685">
    <rdf:RDF>
      <cc:Work
         rdf:about="">
        <dc:format>image/svg+xml</dc:format>
        <dc:type
           rdf:resource="http://purl.org/dc/dcmitype/StillImage" />
        <dc:title></dc:title>
      </cc:Work>
    </rdf:RDF>
  </metadata>
  <g
     id="layer1">
    <path
       id="rect4699"
       d="M 0.5 0.5 L 0.5 4.5 L 4.5 4.5 L 4.5 0.5 L 0.5 0.5 z "
       style="opacity:1;fill-opacity:1" />
    <path
       id="rect4699-3"
       d="M 0.5 8 L 0.5 12 L 4.5 12 L 4.5 8 L 0.5 8 z "
       style="opacity:1;fill-opacity:1" />
    <path
       id="rect4699-0"
       d="M 0.5 15.5 L 0.5 19.5 L 4.5 19.5 L 4.5 15.5 L 0.5 15.5 z "
       style="opacity:1;fill-opacity:1" />
    <path
       id="rect4699-5"
       d="m 8,0.5 v 4 h 4 v -4 z"
       style="opacity:1;fill-opacity:1" />
    <path
       id="rect4699-4"
       d="m 15.5,0.5 v 4 h 4 v -4 z"
       style="opacity:1;fill-opacity:1" />
    <path
       id="rect4699-5-0"
       d="m 8,8 v 4 h 4 V 8 Z"
       style="opacity:1;fill-opacity:1" />
    <path
       id="rect4699-4-5"
       d="m 15.5,8 v 4 h 4 V 8 Z"
       style="opacity:1;fill-opacity:1" />
    <path
       id="rect4699-5-9"
       d="m 8,15.5 v 4 h 4 v -4 z"
       style="opacity:1;fill-opacity:1" />
    <path
       id="rect4699-4-4"
       d="m 15.5,15.5 v 4 h 4 v -4 z"
       style="opacity:1;fill-opacity:1" />
  </g>
</svg>
