<?xml version="1.0" encoding="UTF-8" standalone="no"?>
<!-- Created with Inkscape (http://www.inkscape.org/) -->

<svg
        xmlns:dc="http://purl.org/dc/elements/1.1/"
        xmlns:cc="http://creativecommons.org/ns#"
        xmlns:rdf="http://www.w3.org/1999/02/22-rdf-syntax-ns#"
        xmlns:svg="http://www.w3.org/2000/svg"
        xmlns:sodipodi="http://sodipodi.sourceforge.net/DTD/sodipodi-0.dtd"
        xmlns:inkscape="http://www.inkscape.org/namespaces/inkscape"
        xmlns="http://www.w3.org/2000/svg"
        width="20px"
        height="20px"
        viewBox="0 0 20 20"
        version="1.1"
        id="SVGRoot"
        sodipodi:docname="radioGroup.svg"
        inkscape:version="0.92.4 5da689c313, 2019-01-14">
    <defs
            id="defs815"/>
    <sodipodi:namedview
            id="base"
            pagecolor="#ffffff"
            bordercolor="#666666"
            borderopacity="1.0"
            inkscape:pageopacity="0.0"
            inkscape:pageshadow="2"
            inkscape:zoom="36.203867"
            inkscape:cx="10.262925"
            inkscape:cy="9.8559803"
            inkscape:document-units="px"
            inkscape:current-layer="layer1"
            showgrid="true"
            inkscape:window-width="1920"
            inkscape:window-height="1006"
            inkscape:window-x="0"
            inkscape:window-y="0"
            inkscape:window-maximized="1"
            inkscape:grid-bbox="true"
            inkscape:snap-bbox="true"
            inkscape:bbox-paths="true"
            inkscape:bbox-nodes="true"
            inkscape:snap-bbox-edge-midpoints="true"
            inkscape:snap-bbox-midpoints="true">
        <inkscape:grid
                type="xygrid"
                id="grid1371"/>
    </sodipodi:namedview>
    <metadata
            id="metadata818">
        <rdf:RDF>
            <cc:Work
                    rdf:about="">
                <dc:format>image/svg+xml</dc:format>
                <dc:type
                        rdf:resource="http://purl.org/dc/dcmitype/StillImage"/>
            </cc:Work>
        </rdf:RDF>
    </metadata>
    <g
            inkscape:label="Layer 1"
            inkscape:groupmode="layer"
            id="layer1">
        <path
                d="M 2.5 0 A 2.5 2.5 0 0 0 0 2.5 A 2.5 2.5 0 0 0 2.5 5 A 2.5 2.5 0 0 0 5 2.5 A 2.5 2.5 0 0 0 2.5 0 z M 2.5 0.5 A 2 2 0 0 1 4.5 2.5 A 2 2 0 0 1 2.5 4.5 A 2 2 0 0 1 0.5 2.5 A 2 2 0 0 1 2.5 0.5 z "
                id="path1373"/>
        <path
                inkscape:connector-curvature="0"
                d="M 2.5,7.5 A 2.5,2.5 0 0 0 0,10 2.5,2.5 0 0 0 2.5,12.5 2.5,2.5 0 0 0 5,10 2.5,2.5 0 0 0 2.5,7.5 Z m 0,0.5 a 2,2 0 0 1 2,2 2,2 0 0 1 -2,2 2,2 0 0 1 -2,-2 2,2 0 0 1 2,-2 z"
                id="path1373-3"/>
        <path
                inkscape:connector-curvature="0"
                d="M 2.5,15 A 2.5,2.5 0 0 0 0,17.5 2.5,2.5 0 0 0 2.5,20 2.5,2.5 0 0 0 5,17.5 2.5,2.5 0 0 0 2.5,15 Z m 0,0.5 a 2,2 0 0 1 2,2 2,2 0 0 1 -2,2 2,2 0 0 1 -2,-2 2,2 0 0 1 2,-2 z"
                id="path1373-7"/>
        <rect
                id="rect1406"
                width="12.5"
                height="2"
                x="7.5"
                y="1.5"
                rx="0.30000001"
                ry="0.30000001"/>
        <rect
                id="rect1406-3"
                width="12.5"
                height="2"
                x="7.5"
                y="9"
                rx="0.30000001"
                ry="0.30000001"/>
        <rect
                id="rect1406-5"
                width="12.5"
                height="2"
                x="7.5"
                y="16.5"
                rx="0.30000001"
                ry="0.30000001"/>
        <circle
                id="path1448"
                cx="2.5"
                cy="2.5"
                r="1"/>
        <circle
                id="path1450"
                cx="2.5"
                cy="10"
                r="1"/>
        <circle
                id="path1452"
                cx="2.5"
                cy="17.5"
                r="1"/>
    </g>
</svg>
