<?xml version="1.0" encoding="UTF-8" standalone="no"?>
<svg
        xmlns:dc="http://purl.org/dc/elements/1.1/"
        xmlns:cc="http://creativecommons.org/ns#"
        xmlns:rdf="http://www.w3.org/1999/02/22-rdf-syntax-ns#"
        xmlns:svg="http://www.w3.org/2000/svg"
        xmlns="http://www.w3.org/2000/svg"
        id="SVGRoot"
        version="1.1"
        viewBox="0 0 20 20"
        height="20px"
        width="20px">
    <defs
            id="defs815"/>
    <metadata
            id="metadata818">
        <rdf:RDF>
            <cc:Work
                    rdf:about="">
                <dc:format>image/svg+xml</dc:format>
                <dc:type
                        rdf:resource="http://purl.org/dc/dcmitype/StillImage"/>
                <dc:title></dc:title>
            </cc:Work>
        </rdf:RDF>
    </metadata>
    <g
            id="layer1">
        <path
                id="rect1373"
                d="M 0.30078125 0 C 0.13458124 0 0 0.13458124 0 0.30078125 L 0 4.6992188 C 0 4.8654188 0.13458124 5 0.30078125 5 L 19.699219 5 C 19.865419 5 20 4.8654188 20 4.6992188 L 20 0.30078125 C 20 0.13458124 19.865419 0 19.699219 0 L 0.30078125 0 z M 0.80078125 0.5 L 19.199219 0.5 C 19.365419 0.5 19.5 0.63458124 19.5 0.80078125 L 19.5 4.1992188 C 19.5 4.3654188 19.365419 4.5 19.199219 4.5 L 0.80078125 4.5 C 0.63458124 4.5 0.5 4.3654188 0.5 4.1992188 L 0.5 0.80078125 C 0.5 0.63458124 0.63458124 0.5 0.80078125 0.5 z "/>
        <path
                id="rect1382"
                d="M 19.5 4 L 19.5 4.1992188 C 19.5 4.3654188 19.365419 4.5 19.199219 4.5 L 2.5 4.5 L 2.5 18.800781 L 2.5 19.199219 L 2.5 19.699219 C 2.5 19.865419 2.6345812 20 2.8007812 20 L 19.699219 20 C 19.865419 20 20 19.865419 20 19.699219 L 20 19.199219 L 20 18.800781 L 20 4.3007812 C 20 4.1345813 19.865419 4 19.699219 4 L 19.5 4 z M 3.3007812 5 L 19.199219 5 C 19.365419 5 19.5 5.1345812 19.5 5.3007812 L 19.5 6.6992188 C 19.5 6.8654187 19.365419 7 19.199219 7 L 3.3007812 7 C 3.1345813 7 3 6.8654188 3 6.6992188 L 3 5.3007812 C 3 5.1345813 3.1345812 5 3.3007812 5 z M 3.3007812 7.5 L 19.199219 7.5 C 19.365419 7.5 19.5 7.6345815 19.5 7.8007812 L 19.5 9.1992188 C 19.5 9.3654182 19.365419 9.5 19.199219 9.5 L 3.3007812 9.5 C 3.1345813 9.5 3 9.3654183 3 9.1992188 L 3 7.8007812 C 3 7.6345816 3.1345812 7.5 3.3007812 7.5 z M 3.3007812 10 L 19.199219 10 C 19.365419 10 19.5 10.134581 19.5 10.300781 L 19.5 11.699219 C 19.5 11.865419 19.365419 12 19.199219 12 L 3.3007812 12 C 3.1345813 12 3 11.865419 3 11.699219 L 3 10.300781 C 3 10.134581 3.1345812 10 3.3007812 10 z M 3.3007812 12.5 L 19.199219 12.5 C 19.365419 12.5 19.5 12.634581 19.5 12.800781 L 19.5 14.199219 C 19.5 14.365419 19.365419 14.5 19.199219 14.5 L 3.3007812 14.5 C 3.1345813 14.5 3 14.365419 3 14.199219 L 3 12.800781 C 3 12.634581 3.1345812 12.5 3.3007812 12.5 z M 3.3007812 15 L 19.199219 15 C 19.365419 15 19.5 15.134581 19.5 15.300781 L 19.5 16.699219 C 19.5 16.865419 19.365419 17 19.199219 17 L 3.3007812 17 C 3.1345813 17 3 16.865419 3 16.699219 L 3 15.300781 C 3 15.134581 3.1345812 15 3.3007812 15 z M 3.3007812 17.5 L 19.199219 17.5 C 19.365419 17.5 19.5 17.634581 19.5 17.800781 L 19.5 19.199219 C 19.5 19.365419 19.365419 19.5 19.199219 19.5 L 3.3007812 19.5 C 3.1345813 19.5 3 19.365419 3 19.199219 L 3 17.800781 C 3 17.634581 3.1345812 17.5 3.3007812 17.5 z "/>
    </g>
</svg>
