<?xml version="1.0" encoding="UTF-8" standalone="no"?>
<svg
        xmlns:dc="http://purl.org/dc/elements/1.1/"
        xmlns:cc="http://creativecommons.org/ns#"
        xmlns:rdf="http://www.w3.org/1999/02/22-rdf-syntax-ns#"
        xmlns:svg="http://www.w3.org/2000/svg"
        xmlns="http://www.w3.org/2000/svg"
        id="SVGRoot"
        version="1.1"
        viewBox="0 0 20 20"
        height="20px"
        width="20px">
    <defs
            id="defs877"/>
    <metadata
            id="metadata880">
        <rdf:RDF>
            <cc:Work
                    rdf:about="">
                <dc:format>image/svg+xml</dc:format>
                <dc:type
                        rdf:resource="http://purl.org/dc/dcmitype/StillImage"/>
                <dc:title></dc:title>
            </cc:Work>
        </rdf:RDF>
    </metadata>
    <g
            id="layer1">
        <path
                id="rect892"
                d="M 0.20970395,0 C 0.09307237,0 0,0.09307237 0,0.20970395 V 19.790295 C 0,19.906927 0.09307237,20 0.20970395,20 H 19.790295 C 19.906927,20 20,19.906927 20,19.790295 V 0.20970395 C 20,0.09307237 19.906927,0 19.790295,0 Z M 1.2623356,3.1578948 H 18.737665 c 0.11663,0 0.209703,0.088027 0.209703,0.1973684 V 18.75 c 0,0.109343 -0.09308,0.197368 -0.209703,0.197368 H 1.2623356 c -0.1166317,0 -0.209704,-0.08802 -0.209704,-0.197368 V 3.3552632 c 0,-0.1093422 0.093073,-0.1973684 0.209704,-0.1973684 z"
                style="opacity:1;fill-opacity:1;stroke-width:1.05263162"/>
        <path
                id="path1489"
                d="M 5.5,3 V 19"
                style="fill:none;stroke:#000000;stroke-width:0.5;stroke-linecap:butt;stroke-linejoin:miter;stroke-opacity:1;stroke-miterlimit:4;stroke-dasharray:none"/>
        <path
                id="path1499"
                d="M 10,3 V 19"
                style="fill:none;stroke:#000000;stroke-width:0.5;stroke-linecap:butt;stroke-linejoin:miter;stroke-opacity:1;stroke-miterlimit:4;stroke-dasharray:none"/>
        <path
                id="path1501"
                d="M 14.5,3 V 19"
                style="fill:none;stroke:#000000;stroke-width:0.5;stroke-linecap:butt;stroke-linejoin:miter;stroke-miterlimit:4;stroke-dasharray:none;stroke-opacity:1"/>
        <path
                id="path1503"
                d="M 1,7 H 19"
                style="fill:none;stroke:#000000;stroke-width:0.5;stroke-linecap:butt;stroke-linejoin:miter;stroke-opacity:1;stroke-miterlimit:4;stroke-dasharray:none"/>
        <path
                id="path1505"
                d="M 1,11 H 19"
                style="fill:none;stroke:#000000;stroke-width:0.5;stroke-linecap:butt;stroke-linejoin:miter;stroke-opacity:1;stroke-miterlimit:4;stroke-dasharray:none"/>
        <path
                id="path1507"
                d="M 1,15 H 19"
                style="fill:none;stroke:#000000;stroke-width:0.5;stroke-linecap:butt;stroke-linejoin:miter;stroke-miterlimit:4;stroke-dasharray:none;stroke-opacity:1"/>
        <path
                d="m 10,7 -4.5,4 m 0,-4 4.5,4"
                style="fill:none;stroke:#000000;stroke-width:0.5;stroke-linecap:butt;stroke-linejoin:miter;stroke-miterlimit:4;stroke-dasharray:none;stroke-opacity:1"
                id="path1515"/>
        <rect
                ry="0.2"
                rx="0.2"
                y="0.5"
                x="1"
                height="2"
                width="18"
                id="rect1536"
                style="opacity:1;fill-opacity:1;stroke:#000000;stroke-width:0.5;stroke-miterlimit:4;stroke-dasharray:none;stroke-opacity:1"/>
        <path
                d="M 14.5,7.0000003 10,11 M 10,7.0000003 14.5,11"
                style="fill:none;stroke:#000000;stroke-width:0.5;stroke-linecap:butt;stroke-linejoin:miter;stroke-miterlimit:4;stroke-dasharray:none;stroke-opacity:1"
                id="path1515-9"/>
        <path
                d="m 19,7 -4.5,4 m 0,-4 4.5,4"
                style="fill:none;stroke:#000000;stroke-width:0.5;stroke-linecap:butt;stroke-linejoin:miter;stroke-miterlimit:4;stroke-dasharray:none;stroke-opacity:1"
                id="path1515-3"/>
        <path
                d="M 5.5,7 1,11 m 0,-4 4.5,4"
                style="fill:none;stroke:#000000;stroke-width:0.5;stroke-linecap:butt;stroke-linejoin:miter;stroke-miterlimit:4;stroke-dasharray:none;stroke-opacity:1"
                id="path1515-6"/>
    </g>
</svg>
